<svg xmlns="http://www.w3.org/2000/svg" xml:space="preserve" width="800" height="800" viewBox="0 0 512 512"><path d="M512 89.043c0 49.178-39.866 89.043-89.043 89.043s-89.043-39.866-89.043-89.043S373.779 0 422.957 0 512 39.866 512 89.043zm0 333.914C512 472.134 472.134 512 422.957 512s-89.043-39.866-89.043-89.043 39.866-89.043 89.043-89.043S512 373.78 512 422.957zM178.087 256c0 49.178-39.866 89.043-89.043 89.043S0 305.178 0 256s39.866-89.043 89.043-89.043 89.044 39.867 89.044 89.043z" style="fill:#dcf3f9"/><path d="M475.825 422.957c0 29.152-23.718 52.87-52.87 52.87s-52.87-23.718-52.87-52.87c0-5.532.858-10.867 2.441-15.882L131.975 286.798c-9.606 13.352-25.265 22.072-42.932 22.072-29.152 0-52.87-23.718-52.87-52.87s23.718-52.87 52.87-52.87c17.666 0 33.326 8.718 42.931 22.071l240.553-120.277a52.678 52.678 0 0 1-2.441-15.882c0-29.152 23.718-52.87 52.87-52.87s52.87 23.718 52.87 52.87-23.718 52.87-52.87 52.87c-17.667 0-33.326-8.72-42.931-22.071L139.471 240.118A52.678 52.678 0 0 1 141.912 256c0 5.532-.858 10.866-2.441 15.881l240.553 120.277c9.606-13.351 25.265-22.071 42.931-22.071 29.153 0 52.87 23.718 52.87 52.87z" style="fill:#256277"/><path d="M456.348 89.043c0 18.442-14.949 33.391-33.391 33.391s-33.391-14.949-33.391-33.391 14.949-33.391 33.391-33.391 33.391 14.949 33.391 33.391zm0 333.914c0 18.442-14.949 33.391-33.391 33.391s-33.391-14.949-33.391-33.391 14.949-33.391 33.391-33.391 33.391 14.95 33.391 33.391zM122.435 256c0 18.442-14.949 33.391-33.391 33.391S55.652 274.442 55.652 256s14.949-33.391 33.391-33.391 33.392 14.95 33.392 33.391z" style="fill:#84a7b7"/></svg>